<?xml version="1.0" encoding="utf-8"?>
<!-- Generator: SketchAPI 2021.4.25.11 <https://api.sketch.io/> -->
<svg version="1.1" xmlns="http://www.w3.org/2000/svg" xmlns:xlink="http://www.w3.org/1999/xlink" xmlns:sketchjs="https://sketch.io/dtd/" sketchjs:version="2021.4.25.11">
<defs>
	<radialGradient cx="255" cy="246.27" r="221.38" id="a" gradientUnits="userSpaceOnUse" fx="255" fy="246.27">
		<stop offset="0" style="stop-color:#fff;"/>
		<stop offset="0.73" style="stop-color:#d9d9d9;"/>
		<stop offset="0.874" style="stop-color:#ccc;"/>
		<stop offset="1" style="stop-color:#969696;"/>
	</radialGradient>
</defs>
<path d="M24.923 223.69s-9.23-96.924 98.462-166.92c2.308-7.692 35.385-33.077 57.692-23.077 14.615-5.385 72.308-17.237 114.62-10.926s89.231 30.157 107.69 45.542c10.77 1.539 44.614 26.154 46.153 39.231C463.39 126 492.62 154.46 491.86 236s-33.845 130.77-45.384 145.38-36.154 48.461-73.077 64.615c0 7.692-12.309 13.846-18.462 15.385s-21.537 10.769-30.769 0c-13.847 2.308-80.77 23.077-159.23-2.308s-114.62-85.38-133.08-161.53c-3.846-4.615-12.308-10.001-13.077-31.539s-2.312-40 6.15-42.31z" sketchjs:uid="1"/>
<path d="M34.655 224.65s-8.84-92.824 94.297-159.86c2.21-7.366 33.888-31.677 55.252-22.101 13.997-5.157 69.249-16.508 109.77-10.464 40.519 6.044 85.458 28.881 103.14 43.615 10.314 1.474 42.728 25.047 44.201 37.571 13.261 17.681 41.254 44.938 40.519 123.03-.736 78.09-32.414 125.24-43.465 139.24s-34.625 46.411-69.986 61.882c0 7.367-11.787 13.26-17.681 14.734-5.893 1.474-20.626 10.312-29.467 0-13.262 2.21-77.354 22.101-152.5-2.21-75.13-24.32-109.75-81.78-127.44-154.71-3.684-4.42-11.788-9.578-12.524-30.205-.732-20.62-2.205-38.3 5.899-40.51z" sketchjs:uid="2" style="fill: url(#a);"/>
<g sketchjs:uid="3">
	<circle cx="181" cy="66" r="3.846" sketchjs:uid="4"/>
	<circle cx="178" cy="102.15" r="3.846" sketchjs:uid="5"/>
	<circle cx="171.54" cy="139.54" r="4.231" sketchjs:uid="6"/>
	<circle cx="151.15" cy="176" r="4.615" sketchjs:uid="7"/>
	<circle cx="120.54" cy="205.69" r="4.615" sketchjs:uid="8"/>
	<circle cx="90.608" cy="235.85" r="4.615" sketchjs:uid="9"/>
	<circle cx="67.863" cy="258.27" r="3.846" sketchjs:uid="10"/>
	<circle cx="57.886" cy="194.08" r="5" sketchjs:uid="11"/>
	<circle cx="78.308" cy="171.54" r="4.615" sketchjs:uid="12"/>
	<circle cx="99.539" cy="149.08" r="3.846" sketchjs:uid="13"/>
	<circle cx="117.96" cy="127.5" r="4.039" sketchjs:uid="14"/>
	<circle cx="123.77" cy="102.54" r="4.231" sketchjs:uid="15"/>
	<circle cx="127.38" cy="76.076" r="4.231" sketchjs:uid="16"/>
	<circle cx="38" cy="212.15" r="3.846" sketchjs:uid="17"/>
	<circle cx="364.15" cy="89.846" r="5.385" sketchjs:uid="18"/>
	<circle cx="330.69" cy="119.46" r="5" sketchjs:uid="19"/>
	<circle cx="299.15" cy="141" r="4.231" sketchjs:uid="20"/>
	<circle cx="281.27" cy="180.81" r="4.808" sketchjs:uid="21"/>
	<circle cx="276.17" cy="225.71" r="5.096" sketchjs:uid="22"/>
	<circle cx="289.08" cy="273.54" r="5" sketchjs:uid="23"/>
	<circle cx="304.35" cy="306.58" r="5.192" sketchjs:uid="24"/>
	<circle cx="317.23" cy="336" r="4.616" sketchjs:uid="25"/>
	<circle cx="330.69" cy="370.23" r="5" sketchjs:uid="26"/>
	<circle cx="335.69" cy="396.38" r="5" sketchjs:uid="27"/>
	<circle cx="324.27" cy="420.11" r="4.423" sketchjs:uid="28"/>
	<circle cx="408.38" cy="124.46" r="5" sketchjs:uid="29"/>
	<circle cx="381.46" cy="141" r="4.23" sketchjs:uid="30"/>
	<circle cx="363.38" cy="167.54" r="4.615" sketchjs:uid="31"/>
	<circle cx="351.08" cy="199.08" r="4.615" sketchjs:uid="32"/>
	<circle cx="351.08" cy="229.85" r="4.615" sketchjs:uid="33"/>
	<circle cx="357.62" cy="259.85" r="6.154" sketchjs:uid="34"/>
	<circle cx="361.85" cy="289.85" r="6.154" sketchjs:uid="35"/>
	<circle cx="382.42" cy="316.96" r="5.193" sketchjs:uid="36"/>
	<circle cx="392.81" cy="350.42" r="5.192" sketchjs:uid="37"/>
	<circle cx="392.81" cy="388.88" r="5.192" sketchjs:uid="38"/>
	<circle cx="381.98" cy="416.36" r="3.75" sketchjs:uid="39"/>
	<g sketchjs:uid="40" style="fill: none; stroke: #ED1C24; stroke-miterlimit: 10;">
		<path d="M123.77 102.54c25.77 25.769 38.564 11.923 54.231-.385M127.81 76.317c30.06 20.604 40.098 4.645 53.24-10.328" sketchjs:uid="41" style="stroke-width: 8;"/>
		<path d="M134.52 61.918c26.086 4.989 34.118-5.844 44.811-16.787" sketchjs:uid="42" style="stroke-width: 7;"/>
		<path d="M118.44 127.41c18.868 31.179 34.6 20.791 52.753 12.583M102.06 151.39c11.206 34.678 28.903 28.178 48.456 24.356M78.174 171.93c3.744 36.251 22.406 33.577 42.326 33.908M57.886 194.08c-5.257 36.062 13.491 38.045 32.722 43.25M37.36 213.42c-7.066 35.752 11.559 38.676 30.503 44.842" sketchjs:uid="43" style="stroke-width: 8;"/>
		<g sketchjs:uid="44" style="stroke-width: 8;">
			<path d="M332.5 120.06c13.868 33.701 31.006 25.846 50.202 20.516M363.58 91.033c7.333 35.697 25.637 31.179 45.49 29.526M396.42 77.885c2.738 35.884 21.19 33.265 40.802 33.622M299.23 144.04c20.529 35.308 40.141 27.919 62.512 23.217M281.16 182.51c26.567 33.543 46.47 24.416 69.667 17.736M276.95 228.14c34.446 27.441 52.818 14.457 75.092 3.199M290.37 274.57c38.176 17.697 51.188.517 68.155-15.991M303.45 309.49c37.198 14.746 47.229-3.2 60.983-20.768M319.34 338.04c37.198 14.746 47.229-3.2 60.983-20.768M332.89 371.19c37.198 14.746 47.229-3.2 60.983-20.768M333.83 398.37c33.142 21.052 45.615 5.164 61.583-9.695M324.52 420.25c28.542 24.251 41.266 9.693 57.097-3.493" sketchjs:uid="45"/>
		</g>
	</g>
	<g sketchjs:uid="46" style="fill: none; stroke: #BE1E2D; stroke-width: 3; stroke-miterlimit: 10;">
		<path d="M416.82 84.461c-217.73 131.24 0 217.38-66.124 367.82M151.15 45.131c0 121.62-77.461 161.51-122.39 220.03" sketchjs:uid="47"/>
	</g>
</g>
</svg>